<?xml version="1.0" encoding="UTF-8" standalone="no"?>
<!-- Created with Inkscape (http://www.inkscape.org/) -->
<svg id="svg4026" xmlns:rdf="http://www.w3.org/1999/02/22-rdf-syntax-ns#" xmlns="http://www.w3.org/2000/svg" viewBox="0 0 35.392 40.381" version="1.1" preserveAspectRatio="xMinYMin slice" xmlns:cc="http://creativecommons.org/ns#" xmlns:dc="http://purl.org/dc/elements/1.1/">
<metadata id="metadata4031">
<rdf:RDF>
<cc:Work rdf:about="">
<dc:format>image/svg+xml</dc:format>
<dc:type rdf:resource="http://purl.org/dc/dcmitype/StillImage"/>
<dc:title/>
</cc:Work>
</rdf:RDF>
</metadata>
<g id="layer1" transform="translate(-636.58994,-197.88596)">
<g id="g3907" transform="translate(624.48045,-189.31385)">
<path id="path3585" d="m12.109,427.58,1.848,0c1.3533,0.0327,2.3426-0.17266,2.968-0.61599,0.62532-0.44333,1.1666-1.3206,1.624-2.632l3.472-9.2959h15.624l3.416,9.2959c0.45963,1.3113,1.0103,2.1886,1.652,2.632,0.64163,0.44333,1.6403,0.64866,2.996,0.61599h1.792v-3.472h-0.67199c-0.52503,0.0152-0.94502-0.0572-1.26-0.217-0.31503-0.15983-0.56703-0.49816-0.75599-1.015l-12.88-34.664h-4.1999l-12.88,34.664c-0.1925,0.51683-0.4515,0.85516-0.77699,1.015-0.3255,0.15983-0.73849,0.23217-1.239,0.217h-0.72799zm10.976-15.96,5.1519-14.056c0.35698-1.0208,0.69297-2.1011,1.008-3.241,0.31498-1.1398,0.48298-1.7581,0.50399-1.855h0.112c0.02098,0.0969,0.18898,0.7152,0.50399,1.855,0.31498,1.1398,0.65097,2.2202,1.008,3.241l5.2079,14.056z" fill="#000"/>
<path id="path3532" d="m12.109,426.57,1.848,0c1.3533,0.0327,2.3426-0.17266,2.968-0.61599,0.62532-0.44333,1.1666-1.3206,1.624-2.632l3.472-9.2959h15.624l3.416,9.2959c0.45963,1.3113,1.0103,2.1886,1.652,2.632,0.64163,0.44333,1.6403,0.64866,2.996,0.61599h1.792v-3.472h-0.67199c-0.52503,0.0152-0.94502-0.0572-1.26-0.217-0.31503-0.15983-0.56703-0.49816-0.75599-1.015l-12.88-34.664h-4.1999l-12.88,34.664c-0.1925,0.51683-0.4515,0.85516-0.77699,1.015-0.3255,0.15983-0.73849,0.23217-1.239,0.217h-0.72799zm10.976-15.96,5.1519-14.056c0.35698-1.0208,0.69297-2.1011,1.008-3.241,0.31498-1.1398,0.48298-1.7581,0.50399-1.855h0.112c0.02098,0.0969,0.18898,0.7152,0.50399,1.855,0.31498,1.1398,0.65097,2.2202,1.008,3.241l5.2079,14.056z" fill="#FFF"/>
</g>
</g>
</svg>
