<?xml version="1.0" encoding="UTF-8" standalone="no"?>
<!-- Created with Inkscape (http://www.inkscape.org/) -->
<svg id="svg4058" xmlns:rdf="http://www.w3.org/1999/02/22-rdf-syntax-ns#" xmlns="http://www.w3.org/2000/svg" viewBox="0 0 28.952 40.378" version="1.1" xmlns:cc="http://creativecommons.org/ns#" xmlns:dc="http://purl.org/dc/elements/1.1/">
<metadata id="metadata4063">
<rdf:RDF>
<cc:Work rdf:about="">
<dc:format>image/svg+xml</dc:format>
<dc:type rdf:resource="http://purl.org/dc/dcmitype/StillImage"/>
<dc:title/>
</cc:Work>
</rdf:RDF>
</metadata>
<g id="layer1" transform="translate(-416.95276,-477.88756)">
<g id="g3911" transform="translate(366.52529,90.687748)">
<path id="path3587" d="m54.067,424.16c-0.0082,1.1958,0.26016,2.0661,0.80499,2.611,0.54482,0.54483,1.4151,0.81316,2.611,0.80499h10.136c3.3809-0.0222,6.1669-0.98582,8.3579-2.891,2.1909-1.9051,3.3249-4.6188,3.402-8.1409-0.02336-2.4184-0.62069-4.4974-1.792-6.2369s-2.7767-2.9084-4.8159-3.507v-0.112c1.4595-0.69997,2.6564-1.764,3.591-3.192,0.93446-1.428,1.4175-3.2199,1.449-5.3759-0.05836-3.1079-1.0617-5.5299-3.01-7.2659-1.9483-1.7359-4.4916-2.6179-7.6299-2.646h-16.744v3.472h3.64zm3.92-18.872,0-13.608,9.0719,0c2.093,0.028,3.7309,0.64403,4.9139,1.848s1.785,2.828,1.806,4.8719c-0.02919,2.0755-0.64285,3.7345-1.841,4.9769-1.1982,1.2425-2.8058,1.8795-4.8229,1.911zm0,17.584,0-14.224,9.5759,0c2.3309,0.0303,4.1929,0.73967,5.5859,2.128s2.1069,3.2736,2.142,5.6559c-0.02219,2.3776-0.70585,4.2443-2.051,5.5999-1.3452,1.3557-3.2188,2.0463-5.6209,2.072h-8.3999c-0.39434,0.001-0.69767-0.0992-0.90999-0.301-0.21234-0.20183-0.31967-0.51216-0.32199-0.93099z" fill="#000"/>
<path id="path3534" d="m54.067,423.15c-0.0082,1.1958,0.26016,2.0661,0.80499,2.611,0.54482,0.54483,1.4151,0.81316,2.611,0.80499h10.136c3.3809-0.0222,6.1669-0.98582,8.3579-2.891,2.1909-1.9051,3.3249-4.6188,3.402-8.1409-0.02336-2.4184-0.62069-4.4974-1.792-6.2369s-2.7767-2.9084-4.8159-3.507v-0.112c1.4595-0.69997,2.6564-1.764,3.591-3.192,0.93446-1.428,1.4175-3.2199,1.449-5.3759-0.05836-3.1079-1.0617-5.5299-3.01-7.2659-1.9483-1.7359-4.4916-2.6179-7.6299-2.646h-16.744v3.472h3.64zm3.92-18.872,0-13.608,9.0719,0c2.093,0.028,3.7309,0.64403,4.9139,1.848s1.785,2.828,1.806,4.8719c-0.02919,2.0755-0.64285,3.7345-1.841,4.9769-1.1982,1.2425-2.8058,1.8795-4.8229,1.911zm0,17.584,0-14.224,9.5759,0c2.3309,0.0303,4.1929,0.73967,5.5859,2.128s2.1069,3.2736,2.142,5.6559c-0.02219,2.3776-0.70585,4.2443-2.051,5.5999-1.3452,1.3557-3.2188,2.0463-5.6209,2.072h-8.3999c-0.39434,0.001-0.69767-0.0992-0.90999-0.301-0.21234-0.20183-0.31967-0.51216-0.32199-0.93099z" fill="#FFF"/>
</g>
</g>
</svg>
