<?xml version="1.0" encoding="UTF-8" standalone="no"?>
<!-- Created with Inkscape (http://www.inkscape.org/) -->
<svg id="svg4090" xmlns:rdf="http://www.w3.org/1999/02/22-rdf-syntax-ns#" xmlns="http://www.w3.org/2000/svg" viewBox="0 0 34.832 41.722" version="1.1" xmlns:cc="http://creativecommons.org/ns#" xmlns:dc="http://purl.org/dc/elements/1.1/">
<metadata id="metadata4095">
<rdf:RDF>
<cc:Work rdf:about="">
<dc:format>image/svg+xml</dc:format>
<dc:type rdf:resource="http://purl.org/dc/dcmitype/StillImage"/>
<dc:title/>
</cc:Work>
</rdf:RDF>
</metadata>
<g id="layer1" transform="translate(-282.58422,-274.35846)">
<g id="g3915" transform="translate(198.3625,-112.16924)">
<path id="path3589" d="m84.222,407.59c0.098,5.8834,1.932,10.762,5.5019,14.637,3.5699,3.8744,8.2879,5.8834,14.154,6.0269,3.2548-0.0788,6.0099-0.63051,8.2651-1.6551s3.969-2.0492,5.1416-3.0737c1.1725-1.0246,1.7622-1.5763,1.7692-1.6551l-2.24-2.856c-0.009,0.0684-0.52027,0.54756-1.5348,1.4373-1.0146,0.88977-2.4802,1.7795-4.397,2.6693-1.9168,0.88977-4.2328,1.3689-6.9481,1.4373-4.571-0.11899-8.2949-1.771-11.172-4.9559-2.877-3.185-4.361-7.1889-4.4519-12.012,0.09799-4.8462,1.582-8.7615,4.4519-11.746,2.8699-2.9843,6.5379-4.5196,11.004-4.6059,2.4394,0.007,4.8264,0.49703,7.1609,1.47,2.3344,0.97302,3.5874,2.387,3.759,4.242v2.184h3.696v-3.248c-0.0782-1.9717-0.93612-3.5722-2.5739-4.8014s-3.5868-2.1286-5.8467-2.6983c-2.26-0.56963-4.3624-0.85101-6.3072-0.84413-5.6606,0.12487-10.285,2.0452-13.874,5.7609-3.5886,3.7158-5.4413,8.4781-5.5579,14.287z" fill="#000"/>
<path id="path3536" d="m84.222,406.58c0.098,5.8834,1.932,10.762,5.5019,14.637,3.5699,3.8744,8.2879,5.8834,14.154,6.0269,3.2548-0.0788,6.0099-0.63051,8.2651-1.6551s3.969-2.0492,5.1416-3.0737c1.1725-1.0246,1.7622-1.5763,1.7692-1.6551l-2.24-2.856c-0.009,0.0684-0.52027,0.54756-1.5348,1.4373-1.0146,0.88977-2.4802,1.7795-4.397,2.6693-1.9168,0.88977-4.2328,1.3689-6.9481,1.4373-4.571-0.11899-8.2949-1.771-11.172-4.9559-2.877-3.185-4.361-7.1889-4.4519-12.012,0.09799-4.8462,1.582-8.7615,4.4519-11.746,2.8699-2.9843,6.5379-4.5196,11.004-4.6059,2.4394,0.007,4.8264,0.49703,7.1609,1.47,2.3344,0.97302,3.5874,2.387,3.759,4.242v2.184h3.696v-3.248c-0.0782-1.9717-0.93612-3.5722-2.5739-4.8014s-3.5868-2.1286-5.8467-2.6983c-2.26-0.56963-4.3624-0.85101-6.3072-0.84413-5.6606,0.12487-10.285,2.0452-13.874,5.7609-3.5886,3.7158-5.4413,8.4781-5.5579,14.287z" fill="#FFF"/>
</g>
</g>
</svg>
