<?xml version="1.0" encoding="UTF-8" standalone="no"?>
<!-- Created with Inkscape (http://www.inkscape.org/) -->
<svg id="svg4122" xmlns:rdf="http://www.w3.org/1999/02/22-rdf-syntax-ns#" xmlns="http://www.w3.org/2000/svg" viewBox="0 0 35.56 40.378" version="1.1" xmlns:cc="http://creativecommons.org/ns#" xmlns:dc="http://purl.org/dc/elements/1.1/">
<metadata id="metadata4127">
<rdf:RDF>
<cc:Work rdf:about="">
<dc:format>image/svg+xml</dc:format>
<dc:type rdf:resource="http://purl.org/dc/dcmitype/StillImage"/>
<dc:title/>
</cc:Work>
</rdf:RDF>
</metadata>
<g id="layer1" transform="translate(-527.93451,-363.60184)">
<g id="g3919" transform="translate(404.66067,-23.597966)">
<path id="path3591" d="m126.91,424.16c-0.008,1.1958,0.26015,2.0661,0.80499,2.611,0.54482,0.54483,1.4151,0.81316,2.611,0.80499h8.7359c6.0176-0.0373,10.796-1.7546,14.336-5.1519,3.5396-3.3973,5.3502-8.2506,5.4319-14.56-0.0817-6.2579-1.8924-11.088-5.4319-14.49-3.5396-3.4019-8.3182-5.1239-14.336-5.1659h-15.792v3.472h3.64zm3.92-1.288,0-31.192,7.8399,0c4.8836,0.0199,8.7662,1.4082,11.648,4.165,2.8816,2.7568,4.3562,6.7631,4.4239,12.019-0.0642,5.2826-1.5318,9.3052-4.4029,12.068-2.8712,2.7626-6.7608,4.1533-11.669,4.172h-6.6079c-0.39434,0.001-0.69767-0.0992-0.90999-0.301-0.21234-0.20183-0.31967-0.51216-0.32199-0.93099z" fill="#000"/>
<path id="path3538" d="m126.91,423.15c-0.008,1.1958,0.26015,2.0661,0.80499,2.611,0.54482,0.54483,1.4151,0.81316,2.611,0.80499h8.7359c6.0176-0.0373,10.796-1.7546,14.336-5.1519,3.5396-3.3973,5.3502-8.2506,5.4319-14.56-0.0817-6.2579-1.8924-11.088-5.4319-14.49-3.5396-3.4019-8.3182-5.1239-14.336-5.1659h-15.792v3.472h3.64zm3.92-1.288,0-31.192,7.8399,0c4.8836,0.0199,8.7662,1.4082,11.648,4.165,2.8816,2.7568,4.3562,6.7631,4.4239,12.019-0.0642,5.2826-1.5318,9.3052-4.4029,12.068-2.8712,2.7626-6.7608,4.1533-11.669,4.172h-6.6079c-0.39434,0.001-0.69767-0.0992-0.90999-0.301-0.21234-0.20183-0.31967-0.51216-0.32199-0.93099z" fill="#FFF"/>
</g>
</g>
</svg>
