<?xml version="1.0" encoding="UTF-8" standalone="no"?>
<!-- Created with Inkscape (http://www.inkscape.org/) -->
<svg id="svg4185" xmlns:rdf="http://www.w3.org/1999/02/22-rdf-syntax-ns#" xmlns="http://www.w3.org/2000/svg" viewBox="0 0 27.496 40.378" version="1.1" xmlns:cc="http://creativecommons.org/ns#" xmlns:dc="http://purl.org/dc/elements/1.1/">
<metadata id="metadata4190">
<rdf:RDF>
<cc:Work rdf:about="">
<dc:format>image/svg+xml</dc:format>
<dc:type rdf:resource="http://purl.org/dc/dcmitype/StillImage"/>
<dc:title/>
</cc:Work>
</rdf:RDF>
</metadata>
<g id="layer1" transform="translate(-837.68066,-703.60175)">
<g id="g3923" transform="translate(674.37557,316.40212)">
<g id="g4167">
<path id="path3593" d="m166.95,424.16c-0.008,1.1958,0.26015,2.0661,0.80499,2.611,0.54482,0.54483,1.4151,0.81316,2.611,0.80499h17.024c1.1958,0.008,2.0661-0.26016,2.611-0.80499,0.5448-0.54482,0.81313-1.4151,0.80499-2.611v-3.92h-3.64v2.632c-0.002,0.41883-0.10969,0.72916-0.322,0.93099-0.21235,0.20183-0.51568,0.30217-0.90999,0.301h-13.832c-0.39434,0.001-0.69767-0.0992-0.90999-0.301-0.21234-0.20183-0.31967-0.51216-0.32199-0.93099v-13.384h14.784v-3.472h-14.784v-14.336h13.44c0.39431-0.001,0.69764,0.0992,0.90999,0.301,0.21231,0.20187,0.31964,0.51219,0.322,0.93099v2.632h3.696v-3.92c0.008-1.1958-0.26019-2.0661-0.80499-2.611-0.54485-0.54479-1.4152-0.81312-2.611-0.80499h-22.512v3.472h3.64z" fill="#000"/>
<path id="path3540" d="m166.95,423.15c-0.008,1.1958,0.26015,2.0661,0.80499,2.611,0.54482,0.54483,1.4151,0.81316,2.611,0.80499h17.024c1.1958,0.008,2.0661-0.26016,2.611-0.80499,0.5448-0.54482,0.81313-1.4151,0.80499-2.611v-3.92h-3.64v2.632c-0.002,0.41883-0.10969,0.72916-0.322,0.93099-0.21235,0.20183-0.51568,0.30217-0.90999,0.301h-13.832c-0.39434,0.001-0.69767-0.0992-0.90999-0.301-0.21234-0.20183-0.31967-0.51216-0.32199-0.93099v-13.384h14.784v-3.472h-14.784v-14.336h13.44c0.39431-0.001,0.69764,0.0992,0.90999,0.301,0.21231,0.20187,0.31964,0.5122,0.322,0.93099v2.632h3.696v-3.92c0.008-1.1958-0.26019-2.0661-0.80499-2.611-0.54485-0.54479-1.4152-0.81312-2.611-0.80499h-22.512v3.472h3.64z" fill="#FFF"/>
</g>
</g>
</g>
</svg>
