<?xml version="1.0" encoding="UTF-8" standalone="no"?>
<!-- Created with Inkscape (http://www.inkscape.org/) -->
<svg id="svg4219" xmlns:rdf="http://www.w3.org/1999/02/22-rdf-syntax-ns#" xmlns="http://www.w3.org/2000/svg" viewBox="0 0 24.304 40.378" version="1.1" xmlns:cc="http://creativecommons.org/ns#" xmlns:dc="http://purl.org/dc/elements/1.1/">
<metadata id="metadata4224">
<rdf:RDF>
<cc:Work rdf:about="">
<dc:format>image/svg+xml</dc:format>
<dc:type rdf:resource="http://purl.org/dc/dcmitype/StillImage"/>
<dc:title/>
</cc:Work>
</rdf:RDF>
</metadata>
<g id="layer1" transform="translate(-362.848,-512.17327)">
<g id="g3927" transform="translate(168.26166,124.97364)">
<path id="path3595" d="m198.23,427.58,3.92,0,0-17.64,14.28,0,0-3.472-14.28,0,0-14.784,11.872,0c0.39431-0.001,0.69764,0.0992,0.90999,0.301,0.21231,0.20187,0.31964,0.51219,0.322,0.93099v2.632h3.64v-3.92c0.0105-1.1958-0.24852-2.0661-0.77699-2.611-0.52852-0.54479-1.3895-0.81312-2.583-0.80499h-20.944v3.472h3.64z" fill="#000"/>
<path id="path3542" d="m198.23,426.57,3.92,0,0-17.64,14.28,0,0-3.472-14.28,0,0-14.784,11.872,0c0.39431-0.001,0.69764,0.0992,0.90999,0.301,0.21231,0.20187,0.31964,0.51219,0.322,0.93099v2.632h3.64v-3.92c0.0105-1.1958-0.24852-2.0661-0.77699-2.611-0.52852-0.54479-1.3895-0.81312-2.583-0.80499h-20.944v3.472h3.64z" fill="#FFF"/>
</g>
</g>
</svg>
