<?xml version="1.0" encoding="UTF-8" standalone="no"?>
<!-- Created with Inkscape (http://www.inkscape.org/) -->
<svg id="svg4251" xmlns:rdf="http://www.w3.org/1999/02/22-rdf-syntax-ns#" xmlns="http://www.w3.org/2000/svg" viewBox="0 0 35.784 41.722" version="1.1" xmlns:cc="http://creativecommons.org/ns#" xmlns:dc="http://purl.org/dc/elements/1.1/">
<metadata id="metadata4256">
<rdf:RDF>
<cc:Work rdf:about="">
<dc:format>image/svg+xml</dc:format>
<dc:type rdf:resource="http://purl.org/dc/dcmitype/StillImage"/>
<dc:title/>
</cc:Work>
</rdf:RDF>
</metadata>
<g id="layer1" transform="translate(-357.10814,-511.50137)">
<g id="g3931" transform="translate(134.79917,124.97355)">
<path id="path3597" d="m222.31,407.81c0.13066,6.0211,1.9973,10.905,5.5999,14.651,3.6026,3.7461,8.1572,5.6758,13.664,5.7889,2.7681-0.0657,5.109-0.52542,7.0227-1.3792,1.9136-0.85381,3.3668-1.7076,4.3596-2.5614,0.99275-0.85381,1.4919-1.3136,1.4975-1.3792h0.112c-0.002,0.0175-0.0117,0.1925-0.028,0.52499-0.0164,0.3325-0.0257,0.7175-0.028,1.155v2.968h3.584v-14.952c0.008-1.1958-0.2602-2.0661-0.80499-2.611-0.54486-0.54481-1.4152-0.81314-2.611-0.80499h-3.92v3.472h2.408c0.3943-0.001,0.69763,0.0992,0.90999,0.301,0.2123,0.20184,0.31963,0.51217,0.322,0.93099v4.8719c-0.009,0.0712-0.50714,0.56968-1.4933,1.4954-0.98624,0.92573-2.4049,1.8514-4.2559,2.7772-1.8511,0.92572-4.0786,1.4242-6.6826,1.4954-4.5441-0.0922-8.2517-1.6718-11.123-4.7389-2.8711-3.0671-4.3528-7.0687-4.4449-12.005,0.098-4.8311,1.596-8.7767,4.4939-11.837,2.898-3.0601,6.6079-4.6397,11.13-4.7389,3.5629,0.16803,6.3489,0.84002,8.3579,2.016,2.0089,1.176,3.0309,1.848,3.066,2.016l2.296-2.912c-0.001-0.0594-0.51543-0.47561-1.5431-1.2486-1.0277-0.77289-2.5625-1.5458-4.6044-2.3188-2.0419-0.77288-4.5847-1.1891-7.6283-1.2486-5.6944,0.1377-10.363,2.1023-14.007,5.8939-3.6435,3.7916-5.5264,8.5842-5.6489,14.378z" fill="#000"/>
<path id="path3544" d="m222.31,406.8c0.13066,6.0211,1.9973,10.905,5.5999,14.651,3.6026,3.7461,8.1572,5.6758,13.664,5.7889,2.7681-0.0657,5.109-0.52542,7.0227-1.3792,1.9136-0.85381,3.3668-1.7076,4.3596-2.5614,0.99275-0.85381,1.4919-1.3136,1.4975-1.3792h0.112c-0.002,0.0175-0.0117,0.1925-0.028,0.52499-0.0164,0.3325-0.0257,0.7175-0.028,1.155v2.968h3.584v-14.952c0.008-1.1958-0.2602-2.0661-0.80499-2.611-0.54486-0.54481-1.4152-0.81314-2.611-0.80499h-3.92v3.472h2.408c0.3943-0.001,0.69763,0.0992,0.90999,0.301,0.2123,0.20184,0.31963,0.51217,0.322,0.93099v4.8719c-0.009,0.0712-0.50714,0.56968-1.4933,1.4954-0.98624,0.92573-2.4049,1.8514-4.2559,2.7772-1.8511,0.92572-4.0786,1.4242-6.6826,1.4954-4.5441-0.0922-8.2517-1.6718-11.123-4.7389-2.8711-3.0671-4.3528-7.0687-4.4449-12.005,0.098-4.8311,1.596-8.7767,4.4939-11.837,2.898-3.0601,6.6079-4.6397,11.13-4.7389,3.5629,0.16803,6.3489,0.84002,8.3579,2.016,2.0089,1.176,3.0309,1.848,3.066,2.016l2.296-2.912c-0.001-0.0594-0.51543-0.47561-1.5431-1.2486-1.0277-0.77289-2.5625-1.5458-4.6044-2.3188-2.0419-0.77288-4.5847-1.1891-7.6283-1.2486-5.6944,0.1377-10.363,2.1023-14.007,5.8939-3.6435,3.7916-5.5264,8.5842-5.6489,14.378z" fill="#FFF"/>
</g>
</g>
</svg>
