<?xml version="1.0" encoding="UTF-8" standalone="no"?>
<!-- Created with Inkscape (http://www.inkscape.org/) -->
<svg id="svg4283" xmlns:rdf="http://www.w3.org/1999/02/22-rdf-syntax-ns#" xmlns="http://www.w3.org/2000/svg" viewBox="0 0 37.744 40.378" version="1.1" xmlns:cc="http://creativecommons.org/ns#" xmlns:dc="http://purl.org/dc/elements/1.1/">
<metadata id="metadata4288">
<rdf:RDF>
<cc:Work rdf:about="">
<dc:format>image/svg+xml</dc:format>
<dc:type rdf:resource="http://purl.org/dc/dcmitype/StillImage"/>
<dc:title/>
</cc:Work>
</rdf:RDF>
</metadata>
<g id="layer1" transform="translate(-356.12825,-512.17327)">
<g id="g3935" transform="translate(92.745025,124.97364)">
<path id="path3599" d="m267.02,427.58,3.92,0,0-17.976,22.624,0,0,17.976,3.92,0,0-34.664c0.002-0.4188,0.10963-0.72913,0.322-0.93099,0.21229-0.2018,0.51562-0.30213,0.90998-0.301h2.408v-3.472h-4.1999c-1.169-0.008-2.023,0.2602-2.562,0.80499-0.53903,0.54486-0.80502,1.4152-0.79799,2.611v14.504h-22.624v-14.504c0.008-1.1958-0.26017-2.0661-0.80499-2.611-0.54483-0.54479-1.4152-0.81312-2.611-0.80499h-4.144v3.472h2.408c0.39432-0.001,0.69765,0.0992,0.90999,0.301,0.21232,0.20187,0.31965,0.51219,0.32199,0.93099z" fill="#000"/>
<path id="path3546" d="m267.02,426.57,3.92,0,0-17.976,22.624,0,0,17.976,3.92,0,0-34.664c0.002-0.4188,0.10963-0.72913,0.322-0.93099,0.21229-0.2018,0.51562-0.30213,0.90998-0.301h2.408v-3.472h-4.1999c-1.169-0.008-2.023,0.2602-2.562,0.80499-0.53903,0.54486-0.80502,1.4152-0.79799,2.611v14.504h-22.624v-14.504c0.008-1.1958-0.26017-2.0661-0.80499-2.611-0.54483-0.54479-1.4152-0.81312-2.611-0.80499h-4.144v3.472h2.408c0.39432-0.001,0.69765,0.0992,0.90999,0.301,0.21232,0.20187,0.31965,0.5122,0.32199,0.93099z" fill="#FFF"/>
</g>
</g>
</svg>
