<?xml version="1.0" encoding="UTF-8" standalone="no"?>
<!-- Created with Inkscape (http://www.inkscape.org/) -->
<svg id="svg4347" xmlns:rdf="http://www.w3.org/1999/02/22-rdf-syntax-ns#" xmlns="http://www.w3.org/2000/svg" viewBox="0 0 22.176 41.051" version="1.1" xmlns:cc="http://creativecommons.org/ns#" xmlns:dc="http://purl.org/dc/elements/1.1/">
<metadata id="metadata4352">
<rdf:RDF>
<cc:Work rdf:about="">
<dc:format>image/svg+xml</dc:format>
<dc:type rdf:resource="http://purl.org/dc/dcmitype/StillImage"/>
<dc:title/>
</cc:Work>
</rdf:RDF>
</metadata>
<g id="layer1" transform="translate(-531.7692,-191.83649)">
<g id="g3943" transform="translate(210.55022,-195.36314)">
<path id="path3603" d="m321.22,416.55c0.1225,4.1871,1.2915,7.1948,3.507,9.0229s4.7424,2.7218,7.5809,2.681c2.8384,0.0443,5.3654-0.84232,7.5809-2.66,2.2154-1.8176,3.3844-4.8323,3.507-9.0439v-24.92c0.008-1.1958-0.26019-2.0661-0.80499-2.611-0.54485-0.54479-1.4152-0.81312-2.611-0.80499h-11.48v3.472h9.7439c0.39431-0.001,0.69764,0.0992,0.90999,0.301,0.21231,0.20187,0.31964,0.51219,0.322,0.93099v23.52c-0.0794,2.9843-0.83068,5.0936-2.254,6.3279s-3.0426,1.8316-4.8579,1.792c-1.8445,0.0455-3.4895-0.54949-4.9349-1.785-1.4455-1.2355-2.2085-3.3844-2.289-6.4469v-1.344h-3.92z" fill="#000"/>
<path id="path3550" d="m321.22,415.54c0.1225,4.1871,1.2915,7.1948,3.507,9.0229s4.7424,2.7218,7.5809,2.681c2.8384,0.0443,5.3654-0.84232,7.5809-2.66,2.2154-1.8176,3.3844-4.8323,3.507-9.0439v-24.92c0.008-1.1958-0.26019-2.0661-0.80499-2.611-0.54485-0.54479-1.4152-0.81312-2.611-0.80499h-11.48v3.472h9.7439c0.39431-0.001,0.69764,0.0992,0.90999,0.301,0.21231,0.20187,0.31964,0.5122,0.322,0.93099v23.52c-0.0794,2.9843-0.83068,5.0936-2.254,6.3279s-3.0426,1.8316-4.8579,1.792c-1.8445,0.0455-3.4895-0.54949-4.9349-1.785-1.4455-1.2355-2.2085-3.3844-2.289-6.4469v-1.344h-3.92z" fill="#FFF"/>
</g>
</g>
</svg>
