<?xml version="1.0" encoding="UTF-8" standalone="no"?>
<!-- Created with Inkscape (http://www.inkscape.org/) -->
<svg id="svg4379" xmlns:rdf="http://www.w3.org/1999/02/22-rdf-syntax-ns#" xmlns="http://www.w3.org/2000/svg" viewBox="0 0 30.128 40.384" version="1.1" xmlns:cc="http://creativecommons.org/ns#" xmlns:dc="http://purl.org/dc/elements/1.1/">
<metadata id="metadata4384">
<rdf:RDF>
<cc:Work rdf:about="">
<dc:format>image/svg+xml</dc:format>
<dc:type rdf:resource="http://purl.org/dc/dcmitype/StillImage"/>
<dc:title/>
</cc:Work>
</rdf:RDF>
</metadata>
<g id="layer1" transform="translate(-359.93619,-512.17024)">
<g id="g3947" transform="translate(9.3811,124.97061)">
<path id="path3605" d="m354.2,427.58,3.92,0,0-18.816,4.3119,0c0.84581-0.0198,1.5761,0.0619,2.191,0.245,0.61481,0.18318,1.0791,0.58684,1.393,1.211l7.1679,14.392c0.5903,1.2752,1.2576,2.0988,2.002,2.471,0.74429,0.37216,1.8876,0.53782,3.43,0.49699h2.072v-3.472h-1.12c-0.72102,0.0198-1.309-0.0478-1.764-0.203-0.45502-0.15516-0.81901-0.51682-1.092-1.085l-6.8319-13.552c-0.49585-0.92631-0.93218-1.5376-1.309-1.834-0.37685-0.29631-0.57518-0.43164-0.59499-0.40599v-0.112c0.021,0.0105,0.23098-0.15048,0.62999-0.483,0.39898-0.33247,0.86097-0.89946,1.386-1.701l10.136-16.52h-4.4799l-9.5199,15.68c-0.34068,0.54835-0.79334,0.92167-1.358,1.12-0.56467,0.19835-1.2133,0.29169-1.946,0.28h-4.7039v-13.664c0.008-1.1958-0.26018-2.0661-0.80499-2.611-0.54484-0.54479-1.4152-0.81312-2.611-0.80499h-4.144v3.472h2.408c0.39433-0.001,0.69766,0.0992,0.90999,0.301,0.21233,0.20187,0.31966,0.51219,0.322,0.93099z" fill="#000"/>
<path id="path3552" d="m354.2,426.57,3.92,0,0-18.816,4.3119,0c0.84581-0.0198,1.5761,0.0619,2.191,0.245,0.61481,0.18318,1.0791,0.58684,1.393,1.211l7.1679,14.392c0.5903,1.2752,1.2576,2.0988,2.002,2.471,0.74429,0.37216,1.8876,0.53782,3.43,0.49699h2.072v-3.472h-1.12c-0.72102,0.0198-1.309-0.0478-1.764-0.203-0.45502-0.15516-0.81901-0.51682-1.092-1.085l-6.8319-13.552c-0.49585-0.92631-0.93218-1.5376-1.309-1.834-0.37685-0.29631-0.57518-0.43164-0.59499-0.40599v-0.112c0.021,0.0105,0.23098-0.15048,0.62999-0.483,0.39898-0.33247,0.86097-0.89946,1.386-1.701l10.136-16.52h-4.4799l-9.5199,15.68c-0.34068,0.54835-0.79334,0.92167-1.358,1.12-0.56467,0.19835-1.2133,0.29169-1.946,0.28h-4.7039v-13.664c0.008-1.1958-0.26018-2.0661-0.80499-2.611-0.54484-0.54479-1.4152-0.81312-2.611-0.80499h-4.144v3.472h2.408c0.39433-0.001,0.69766,0.0992,0.90999,0.301,0.21233,0.20187,0.31966,0.51219,0.322,0.93099z" fill="#FFF"/>
</g>
</g>
</svg>
