<?xml version="1.0" encoding="UTF-8" standalone="no"?>
<!-- Created with Inkscape (http://www.inkscape.org/) -->
<svg id="svg4424" xmlns:rdf="http://www.w3.org/1999/02/22-rdf-syntax-ns#" xmlns="http://www.w3.org/2000/svg" viewBox="0 0 26.768 40.378" version="1.1" xmlns:cc="http://creativecommons.org/ns#" xmlns:dc="http://purl.org/dc/elements/1.1/">
<metadata id="metadata4429">
<rdf:RDF>
<cc:Work rdf:about="">
<dc:format>image/svg+xml</dc:format>
<dc:type rdf:resource="http://purl.org/dc/dcmitype/StillImage"/>
<dc:title/>
</cc:Work>
</rdf:RDF>
</metadata>
<g id="layer1" transform="translate(47.66963,-232.17318)">
<g id="g3951" transform="translate(-431.25597,-155.02645)">
<path id="path3607" d="m387.23,424.16c-0.008,1.1958,0.26015,2.0661,0.80499,2.611,0.54482,0.54483,1.4151,0.81316,2.611,0.80499h16.296c1.1958,0.008,2.0661-0.26016,2.611-0.80499,0.5448-0.54482,0.81313-1.4151,0.80499-2.611v-3.92h-3.696v2.632c-0.002,0.41883-0.10969,0.72916-0.322,0.93099-0.21235,0.20183-0.51568,0.30217-0.90999,0.301h-13.048c-0.39434,0.001-0.69767-0.0992-0.90999-0.301-0.21234-0.20183-0.31967-0.51216-0.32199-0.93099v-31.248c0.008-1.1958-0.26018-2.0661-0.80499-2.611-0.54484-0.54479-1.4152-0.81312-2.611-0.80499h-4.144v3.472h2.408c0.39433-0.001,0.69766,0.0992,0.90999,0.301,0.21233,0.20187,0.31966,0.51219,0.322,0.93099z" fill="#000"/>
<path id="path3554" d="m387.23,423.15c-0.008,1.1958,0.26015,2.0661,0.80499,2.611,0.54482,0.54483,1.4151,0.81316,2.611,0.80499h16.296c1.1958,0.008,2.0661-0.26016,2.611-0.80499,0.5448-0.54482,0.81313-1.4151,0.80499-2.611v-3.92h-3.696v2.632c-0.002,0.41883-0.10969,0.72916-0.322,0.93099-0.21235,0.20183-0.51568,0.30217-0.90999,0.301h-13.048c-0.39434,0.001-0.69767-0.0992-0.90999-0.301-0.21234-0.20183-0.31967-0.51216-0.32199-0.93099v-31.248c0.008-1.1958-0.26018-2.0661-0.80499-2.611-0.54484-0.54479-1.4152-0.81312-2.611-0.80499h-4.144v3.472h2.408c0.39433-0.001,0.69766,0.0992,0.90999,0.301,0.21233,0.20187,0.31966,0.5122,0.322,0.93099z" fill="#FFF"/>
</g>
</g>
</svg>
