<?xml version="1.0" encoding="UTF-8" standalone="no"?>
<!-- Created with Inkscape (http://www.inkscape.org/) -->
<svg id="svg4456" xmlns:rdf="http://www.w3.org/1999/02/22-rdf-syntax-ns#" xmlns="http://www.w3.org/2000/svg" viewBox="0 0 44.911 40.378" version="1.1" xmlns:cc="http://creativecommons.org/ns#" xmlns:dc="http://purl.org/dc/elements/1.1/">
<metadata id="metadata4461">
<rdf:RDF>
<cc:Work rdf:about="">
<dc:format>image/svg+xml</dc:format>
<dc:type rdf:resource="http://purl.org/dc/dcmitype/StillImage"/>
<dc:title/>
</cc:Work>
</rdf:RDF>
</metadata>
<g id="layer1" transform="translate(-352.54429,-512.17327)">
<g id="g3955" transform="translate(-59.562685,124.97346)">
<path id="path3609" d="m412.11,427.58,3.752,0c1.1853,0.008,2.0346-0.26016,2.548-0.80499,0.51332-0.54482,0.80265-1.4151,0.86799-2.611l1.848-23.912c0.0805-1.1643,0.12948-2.3636,0.14699-3.598,0.0175-1.2343,0.0245-1.9016,0.021-2.002h0.11199c0.0303,0.11086,0.26366,0.79918,0.69999,2.065,0.43632,1.2658,0.89365,2.4442,1.372,3.535l9.2959,19.992h3.528l9.3519-19.992c0.50046-1.1106,0.95545-2.2773,1.365-3.5,0.40946-1.2226,0.62646-1.8853,0.651-1.988h0.11199c-0.004,0.0957,0.003,0.74436,0.021,1.946,0.0175,1.2017,0.0665,2.3823,0.147,3.542l1.848,23.912c0.0653,1.1958,0.35462,2.0661,0.86799,2.611,0.51328,0.54483,1.3626,0.81316,2.548,0.80499h3.808v-3.472h-2.128c-0.7747,0.009-1.1854-0.40133-1.232-1.232l-2.744-34.664h-3.9759l-10.416,22.904c-0.47135,1.0757-0.90068,2.1023-1.288,3.08-0.38736,0.97767-0.59269,1.5003-0.616,1.568h-0.11199c-0.0222-0.0677-0.22986-0.59031-0.623-1.568-0.39318-0.97764-0.83884-2.0043-1.337-3.08l-10.416-22.904h-3.976l-2.744,34.664c-0.0467,0.83066-0.45733,1.2413-1.232,1.232h-2.072z" fill="#000"/>
<path id="path3556" d="m412.11,426.57,3.752,0c1.1853,0.008,2.0346-0.26016,2.548-0.80499,0.51332-0.54482,0.80265-1.4151,0.86799-2.611l1.848-23.912c0.0805-1.1643,0.12948-2.3636,0.14699-3.598,0.0175-1.2343,0.0245-1.9016,0.021-2.002h0.11199c0.0303,0.11086,0.26366,0.79918,0.69999,2.065,0.43632,1.2658,0.89365,2.4442,1.372,3.535l9.2959,19.992h3.528l9.3519-19.992c0.50046-1.1106,0.95545-2.2773,1.365-3.5,0.40946-1.2226,0.62646-1.8853,0.651-1.988h0.11199c-0.004,0.0957,0.003,0.74436,0.021,1.946,0.0175,1.2017,0.0665,2.3823,0.147,3.542l1.848,23.912c0.0653,1.1958,0.35462,2.0661,0.86799,2.611,0.51328,0.54483,1.3626,0.81316,2.548,0.80499h3.808v-3.472h-2.128c-0.7747,0.009-1.1854-0.40133-1.232-1.232l-2.744-34.664h-3.9759l-10.416,22.904c-0.47135,1.0757-0.90068,2.1023-1.288,3.08-0.38736,0.97767-0.59269,1.5003-0.616,1.568h-0.11199c-0.0222-0.0677-0.22986-0.59031-0.623-1.568-0.39318-0.97764-0.83884-2.0043-1.337-3.08l-10.416-22.904h-3.976l-2.744,34.664c-0.0467,0.83066-0.45733,1.2413-1.232,1.232h-2.072z" fill="#FFF"/>
</g>
</g>
</svg>
