<?xml version="1.0" encoding="UTF-8" standalone="no"?>
<!-- Created with Inkscape (http://www.inkscape.org/) -->
<svg id="svg4488" xmlns:rdf="http://www.w3.org/1999/02/22-rdf-syntax-ns#" xmlns="http://www.w3.org/2000/svg" viewBox="0 0 37.912 40.378" version="1.1" xmlns:cc="http://creativecommons.org/ns#" xmlns:dc="http://purl.org/dc/elements/1.1/">
<metadata id="metadata4493">
<rdf:RDF>
<cc:Work rdf:about="">
<dc:format>image/svg+xml</dc:format>
<dc:type rdf:resource="http://purl.org/dc/dcmitype/StillImage"/>
<dc:title/>
</cc:Work>
</rdf:RDF>
</metadata>
<g id="layer1" transform="translate(-356.04424,-512.17319)">
<g id="g3959" transform="translate(-104.5421,124.97355)">
<path id="path3611" d="m460.59,427.58,4.144,0c1.1958,0.008,2.0661-0.26016,2.611-0.80499,0.54481-0.54482,0.81314-1.4151,0.80499-2.611v-24.64c-0.014-1.1188-0.07-2.2271-0.168-3.325-0.098-1.0978-0.15401-1.6881-0.168-1.771h0.112c0.0478,0.0934,0.41415,0.70469,1.099,1.834,0.68481,1.1293,1.4011,2.2167,2.149,3.262l20.104,28.056h3.584v-34.664c0.002-0.4188,0.10963-0.72913,0.322-0.93099,0.21229-0.2018,0.51562-0.30213,0.90999-0.301h2.408v-3.472h-4.144c-1.1958-0.008-2.0662,0.2602-2.611,0.80499-0.54486,0.54486-0.81319,1.4152-0.80499,2.611v24.64c0.0116,1.1212,0.0583,2.2388,0.14,3.353,0.0816,1.1142,0.1283,1.7138,0.14,1.799h-0.112c-0.049-0.0922-0.41303-0.70582-1.092-1.841-0.67903-1.1352-1.379-2.2388-2.1-3.311l-20.104-28.056h-3.584v34.664c-0.002,0.41883-0.10967,0.72916-0.322,0.93099s-0.51566,0.30217-0.90999,0.301h-2.408z" fill="#000"/>
<path id="path3558" d="m460.59,426.57,4.144,0c1.1958,0.008,2.0661-0.26016,2.611-0.80499,0.54481-0.54482,0.81314-1.4151,0.80499-2.611v-24.64c-0.014-1.1188-0.07-2.2271-0.168-3.325-0.098-1.0978-0.15401-1.6881-0.168-1.771h0.112c0.0478,0.0934,0.41415,0.70469,1.099,1.834,0.68481,1.1293,1.4011,2.2167,2.149,3.262l20.104,28.056h3.584v-34.664c0.002-0.4188,0.10963-0.72913,0.322-0.93099,0.21229-0.2018,0.51562-0.30213,0.90999-0.301h2.408v-3.472h-4.144c-1.1958-0.008-2.0662,0.2602-2.611,0.80499-0.54486,0.54486-0.81319,1.4152-0.80499,2.611v24.64c0.0116,1.1212,0.0583,2.2388,0.14,3.353,0.0816,1.1142,0.1283,1.7138,0.14,1.799h-0.112c-0.049-0.0922-0.41303-0.70582-1.092-1.841-0.67903-1.1352-1.379-2.2388-2.1-3.311l-20.104-28.056h-3.584v34.664c-0.002,0.41883-0.10967,0.72916-0.322,0.93099s-0.51566,0.30217-0.90999,0.301h-2.408z" fill="#FFF"/>
</g>
</g>
</svg>
