<?xml version="1.0" encoding="UTF-8" standalone="no"?>
<!-- Created with Inkscape (http://www.inkscape.org/) -->
<svg id="svg4520" xmlns:rdf="http://www.w3.org/1999/02/22-rdf-syntax-ns#" xmlns="http://www.w3.org/2000/svg" viewBox="0 0 40.095 41.722" version="1.1" xmlns:cc="http://creativecommons.org/ns#" xmlns:dc="http://purl.org/dc/elements/1.1/">
<metadata id="metadata4525">
<rdf:RDF>
<cc:Work rdf:about="">
<dc:format>image/svg+xml</dc:format>
<dc:type rdf:resource="http://purl.org/dc/dcmitype/StillImage"/>
<dc:title/>
</cc:Work>
</rdf:RDF>
</metadata>
<g id="layer1" transform="translate(-354.95226,-511.50137)">
<g id="g3963" transform="translate(-147.95696,124.97355)">
<path id="path3613" d="m502.91,407.64c0.13533,5.9056,2.0766,10.782,5.8239,14.63,3.7473,3.8476,8.4885,5.8403,14.224,5.9779,5.7107-0.13766,10.445-2.1303,14.203-5.9779,3.7577-3.8476,5.706-8.7242,5.8449-14.63-0.13888-5.7866-2.0872-10.551-5.8449-14.294-3.7578-3.7426-8.4921-5.6792-14.203-5.8099-5.7353,0.1307-10.477,2.0673-14.224,5.8099-3.7473,3.7426-5.6886,8.5072-5.8239,14.294zm4.088,0c0.11199-4.7506,1.666-8.6472,4.6619-11.69,2.996-3.0426,6.7619-4.6152,11.298-4.7179,4.5114,0.1027,8.2704,1.6754,11.277,4.7179,3.0064,3.0426,4.5674,6.9393,4.6829,11.69-0.11554,4.8696-1.6765,8.8782-4.6829,12.026-3.0065,3.1476-6.7654,4.7763-11.277,4.8859-4.536-0.10966-8.3019-1.7383-11.298-4.8859-2.996-3.1476-4.55-7.1562-4.6619-12.026z" fill="#000"/>
<path id="path3560" d="m502.91,406.63c0.13533,5.9056,2.0766,10.782,5.8239,14.63,3.7473,3.8476,8.4885,5.8403,14.224,5.9779,5.7107-0.13766,10.445-2.1303,14.203-5.9779,3.7577-3.8476,5.706-8.7242,5.8449-14.63-0.13888-5.7866-2.0872-10.551-5.8449-14.294-3.7578-3.7426-8.4921-5.6792-14.203-5.8099-5.7353,0.1307-10.477,2.0673-14.224,5.8099-3.7473,3.7426-5.6886,8.5072-5.8239,14.294zm4.088,0c0.11199-4.7506,1.666-8.6472,4.6619-11.69,2.996-3.0426,6.7619-4.6152,11.298-4.7179,4.5114,0.1027,8.2704,1.6754,11.277,4.7179,3.0064,3.0426,4.5674,6.9393,4.6829,11.69-0.11554,4.8696-1.6765,8.8782-4.6829,12.026-3.0065,3.1476-6.7654,4.7763-11.277,4.8859-4.536-0.10966-8.3019-1.7383-11.298-4.8859-2.996-3.1476-4.55-7.1562-4.6619-12.026z" fill="#FFF"/>
</g>
</g>
</svg>
