<?xml version="1.0" encoding="UTF-8" standalone="no"?>
<!-- Created with Inkscape (http://www.inkscape.org/) -->
<svg id="svg4552" xmlns:rdf="http://www.w3.org/1999/02/22-rdf-syntax-ns#" xmlns="http://www.w3.org/2000/svg" viewBox="0 0 28.784 40.378" version="1.1" xmlns:cc="http://creativecommons.org/ns#" xmlns:dc="http://purl.org/dc/elements/1.1/">
<metadata id="metadata4557">
<rdf:RDF>
<cc:Work rdf:about="">
<dc:format>image/svg+xml</dc:format>
<dc:type rdf:resource="http://purl.org/dc/dcmitype/StillImage"/>
<dc:title/>
</cc:Work>
</rdf:RDF>
</metadata>
<g id="layer1" transform="translate(-360.60819,-512.17336)">
<g id="g3967" transform="translate(-186.8219,124.97355)">
<path id="path3615" d="m551.07,427.58,3.92,0,0-15.456,9.0719,0c3.5688-0.0431,6.4691-1.1328,8.7009-3.269,2.2318-2.1361,3.3821-5.0597,3.451-8.7709-0.0689-3.6796-1.2192-6.5682-3.451-8.6659-2.2318-2.0976-5.1321-3.1663-8.7009-3.206h-16.632v3.472h3.64zm3.92-18.928,0-16.968,8.6239,0c2.6109,0.0175,4.6829,0.75253,6.2159,2.205s2.3169,3.5175,2.352,6.1949c-0.0339,2.709-0.82019,4.809-2.359,6.2999-1.5388,1.491-3.6272,2.247-6.2649,2.268z" fill="#000"/>
<path id="path3562" d="m551.07,426.57,3.92,0,0-15.456,9.0719,0c3.5688-0.0431,6.4691-1.1328,8.7009-3.269,2.2318-2.1361,3.3821-5.0597,3.451-8.7709-0.0689-3.6796-1.2192-6.5682-3.451-8.6659-2.2318-2.0976-5.1321-3.1663-8.7009-3.206h-16.632v3.472h3.64zm3.92-18.928,0-16.968,8.6239,0c2.6109,0.0175,4.6829,0.75253,6.2159,2.205s2.3169,3.5175,2.352,6.1949c-0.0339,2.709-0.82019,4.809-2.359,6.2999-1.5388,1.491-3.6272,2.247-6.2649,2.268z" fill="#FFF"/>
</g>
</g>
</svg>
