<?xml version="1.0" encoding="UTF-8" standalone="no"?>
<!-- Created with Inkscape (http://www.inkscape.org/) -->
<svg id="svg4584" xmlns:rdf="http://www.w3.org/1999/02/22-rdf-syntax-ns#" xmlns="http://www.w3.org/2000/svg" viewBox="0 0 40.095 42.002" version="1.1" xmlns:cc="http://creativecommons.org/ns#" xmlns:dc="http://purl.org/dc/elements/1.1/">
<metadata id="metadata4589">
<rdf:RDF>
<cc:Work rdf:about="">
<dc:format>image/svg+xml</dc:format>
<dc:type rdf:resource="http://purl.org/dc/dcmitype/StillImage"/>
<dc:title/>
</cc:Work>
</rdf:RDF>
</metadata>
<g id="layer1" transform="translate(-354.95226,-511.36137)">
<g id="g3971" transform="translate(-224.62884,124.83355)">
<path id="path3617" d="m579.58,407.64c0.13416,5.8811,2.0638,10.751,5.7889,14.609,3.7251,3.8581,8.4407,5.8578,14.147,5.9989,2.4733-0.006,4.7926-0.40016,6.9579-1.183,2.1653-0.78283,4.1206-1.9191,5.8659-3.409l4.8159,4.8719,2.408-2.52-4.8159-4.8159c1.5283-1.8106,2.7276-3.8733,3.598-6.1879,0.87028-2.3146,1.3136-4.7692,1.33-7.3639-0.13304-5.7866-2.079-10.551-5.8379-14.294-3.759-3.7426-8.5329-5.6792-14.322-5.8099-5.7061,0.1307-10.422,2.0673-14.147,5.8099-3.7251,3.7426-5.6548,8.5072-5.7889,14.294zm4.0879,0c0.10383-4.7482,1.6321-8.6355,4.585-11.662,2.9528-3.0263,6.7071-4.5896,11.263-4.6899,4.6386,0.10037,8.4512,1.6637,11.438,4.6899,2.9866,3.0263,4.5312,6.9136,4.6339,11.662-0.0117,2.0627-0.33836,4.0273-0.97998,5.8939-0.6417,1.8667-1.5284,3.5233-2.66,4.9699l-4.6479-4.8159-2.408,2.52,4.7039,4.7599c-0.0315,0.14933-0.93452,0.74666-2.709,1.792s-4.2315,1.6426-7.3709,1.792c-4.5558-0.11316-8.3101-1.7488-11.263-4.9069-2.9528-3.1581-4.4811-7.1597-4.585-12.005z" fill="#000"/>
<path id="path3564" d="m579.58,406.63c0.13416,5.8811,2.0638,10.751,5.7889,14.609,3.7251,3.8581,8.4407,5.8578,14.147,5.9989,2.4733-0.006,4.7926-0.40016,6.9579-1.183,2.1653-0.78283,4.1206-1.9191,5.8659-3.409l4.8159,4.8719,2.408-2.52-4.8159-4.8159c1.5283-1.8106,2.7276-3.8733,3.598-6.1879,0.87028-2.3146,1.3136-4.7692,1.33-7.3639-0.13304-5.7866-2.079-10.551-5.8379-14.294-3.759-3.7426-8.5329-5.6792-14.322-5.8099-5.7061,0.1307-10.422,2.0673-14.147,5.8099-3.7251,3.7426-5.6548,8.5072-5.7889,14.294zm4.0879,0c0.10383-4.7482,1.6321-8.6355,4.585-11.662,2.9528-3.0263,6.7071-4.5896,11.263-4.6899,4.6386,0.10037,8.4512,1.6637,11.438,4.6899,2.9866,3.0263,4.5312,6.9136,4.6339,11.662-0.0117,2.0627-0.33836,4.0273-0.97998,5.8939-0.6417,1.8667-1.5284,3.5233-2.66,4.9699l-4.6479-4.8159-2.408,2.52,4.7039,4.7599c-0.0315,0.14933-0.93452,0.74666-2.709,1.792s-4.2315,1.6426-7.3709,1.792c-4.5558-0.11316-8.3101-1.7488-11.263-4.9069-2.9528-3.1581-4.4811-7.1597-4.585-12.005z" fill="#FFF"/>
</g>
</g>
</svg>
