<?xml version="1.0" encoding="UTF-8" standalone="no"?>
<!-- Created with Inkscape (http://www.inkscape.org/) -->
<svg id="svg4616" xmlns:rdf="http://www.w3.org/1999/02/22-rdf-syntax-ns#" xmlns="http://www.w3.org/2000/svg" viewBox="0 0 30.968 40.383" version="1.1" xmlns:cc="http://creativecommons.org/ns#" xmlns:dc="http://purl.org/dc/elements/1.1/">
<metadata id="metadata4621">
<rdf:RDF>
<cc:Work rdf:about="">
<dc:format>image/svg+xml</dc:format>
<dc:type rdf:resource="http://purl.org/dc/dcmitype/StillImage"/>
<dc:title/>
</cc:Work>
</rdf:RDF>
</metadata>
<g id="layer1" transform="translate(-359.5162,-512.17087)">
<g id="g3975" transform="translate(-264.58577,124.97106)">
<path id="path3619" d="m627.74,427.58,3.92,0,0-16.576,6.6079,0c1.0546-0.0315,1.8573,0.10151,2.408,0.39899,0.55064,0.29751,1.0733,0.9485,1.568,1.953l5.6559,11.256c0.5903,1.2506,1.2576,2.0673,2.002,2.45,0.74429,0.38266,1.8876,0.55532,3.43,0.51799h1.736v-3.472h-0.78399c-0.69419,0.0198-1.2658-0.0478-1.715-0.203-0.44919-0.15516-0.81085-0.51682-1.085-1.085l-5.6559-11.2c-0.30102-0.55531-0.59502-0.95664-0.88199-1.204-0.28702-0.24731-0.44102-0.36864-0.46199-0.36399v-0.112c2.0078-0.42464,3.7601-1.5213,5.2569-3.29,1.4968-1.7686,2.2831-4.1812,2.359-7.2379-0.0584-3.4556-1.1177-6.1762-3.178-8.1619-2.0603-1.9856-4.7716-2.9983-8.1339-3.038h-16.688v3.472h3.64zm3.92-20.048,0-15.848,8.7919,0c2.3484,0.0222,4.1894,0.71986,5.5229,2.093,1.3334,1.3732,2.0124,3.2888,2.037,5.7469-0.0234,2.4897-0.70468,4.4403-2.044,5.8519-1.3393,1.4117-3.1966,2.1303-5.5719,2.156z" fill="#000"/>
<path id="path3566" d="m627.74,426.57,3.92,0,0-16.576,6.6079,0c1.0546-0.0315,1.8573,0.10151,2.408,0.39899,0.55064,0.29751,1.0733,0.9485,1.568,1.953l5.6559,11.256c0.5903,1.2506,1.2576,2.0673,2.002,2.45,0.74429,0.38266,1.8876,0.55532,3.43,0.51799h1.736v-3.472h-0.78399c-0.69419,0.0198-1.2658-0.0478-1.715-0.203-0.44919-0.15516-0.81085-0.51682-1.085-1.085l-5.6559-11.2c-0.30102-0.55531-0.59502-0.95664-0.88199-1.204-0.28702-0.24731-0.44102-0.36864-0.46199-0.36399v-0.112c2.0078-0.42464,3.7601-1.5213,5.2569-3.29,1.4968-1.7686,2.2831-4.1812,2.359-7.2379-0.0584-3.4556-1.1177-6.1762-3.178-8.1619-2.0603-1.9856-4.7716-2.9983-8.1339-3.038h-16.688v3.472h3.64zm3.92-20.048,0-15.848,8.7919,0c2.3484,0.0222,4.1894,0.71986,5.5229,2.093,1.3334,1.3732,2.0124,3.2888,2.037,5.7469-0.0234,2.4897-0.70468,4.4403-2.044,5.8519-1.3393,1.4117-3.1966,2.1303-5.5719,2.156z" fill="#FFF"/>
</g>
</g>
</svg>
