<?xml version="1.0" encoding="UTF-8" standalone="no"?>
<!-- Created with Inkscape (http://www.inkscape.org/) -->
<svg id="svg4648" xmlns:rdf="http://www.w3.org/1999/02/22-rdf-syntax-ns#" xmlns="http://www.w3.org/2000/svg" viewBox="0 0 24.416 41.722" version="1.1" xmlns:cc="http://creativecommons.org/ns#" xmlns:dc="http://purl.org/dc/elements/1.1/">
<metadata id="metadata4653">
<rdf:RDF>
<cc:Work rdf:about="">
<dc:format>image/svg+xml</dc:format>
<dc:type rdf:resource="http://purl.org/dc/dcmitype/StillImage"/>
<dc:title/>
</cc:Work>
</rdf:RDF>
</metadata>
<g id="layer1" transform="translate(-362.79394,-511.50177)">
<g id="g3979" transform="translate(-294.93606,124.97379)">
<path id="path3621" fill="#000" d="m657.73,422.65c0.005,0.0691,0.48671,0.55308,1.4456,1.4518,0.9589,0.89875,2.3658,1.7975,4.2207,2.6963,1.8549,0.89875,4.1287,1.3827,6.8215,1.4518,3.7309-0.0852,6.6429-1.1608,8.7359-3.227,2.093-2.0661,3.1569-4.6118,3.192-7.6369-0.10123-3.1787-1.1133-5.6132-3.0362-7.3035-1.923-1.6903-4.1495-3.0521-6.6797-4.0853s-4.7567-2.1535-6.6797-3.3608c-1.9229-1.2073-2.935-2.9173-3.0362-5.1301,0.0175-1.7336,0.72448-3.2083,2.121-4.4239s3.3774-1.8503,5.9429-1.904c1.8794,0.0234,3.4824,0.4107,4.8089,1.162,1.3265,0.75135,2.0195,1.7267,2.079,2.926v1.848h3.696v-2.8c-0.0609-1.7055-0.69829-3.0543-1.9123-4.0465-1.214-0.99204-2.6396-1.6979-4.2767-2.1176-1.6371-0.41961-3.1208-0.62356-4.4509-0.61184-3.6866,0.077-6.6033,1.071-8.7499,2.982s-3.2433,4.277-3.29,7.0979c0.10121,2.9846,1.1133,5.2858,3.0362,6.9037s4.1495,2.9566,6.6797,4.0162,4.7567,2.2444,6.6797,3.5542c1.9229,1.3099,2.935,3.1491,3.0362,5.5177-0.0548,2.1292-0.81318,3.8208-2.275,5.0749-1.4618,1.2542-3.2981,1.8958-5.5089,1.925-2.0827-0.0594-3.8844-0.47565-5.405-1.2486-1.5206-0.77292-2.6959-1.5458-3.5259-2.3188-0.82997-0.77292-1.2503-1.1891-1.261-1.2486z"/>
<path id="path3568" fill="#FFF" d="m657.73,421.64c0.005,0.0691,0.48671,0.55308,1.4456,1.4518,0.9589,0.89875,2.3658,1.7975,4.2207,2.6963,1.8549,0.89875,4.1287,1.3827,6.8215,1.4518,3.7309-0.0852,6.6429-1.1608,8.7359-3.227,2.093-2.0661,3.1569-4.6118,3.192-7.6369-0.10123-3.1787-1.1133-5.6132-3.0362-7.3035-1.923-1.6903-4.1495-3.0521-6.6797-4.0853s-4.7567-2.1535-6.6797-3.3608c-1.9229-1.2073-2.935-2.9173-3.0362-5.1301,0.0175-1.7336,0.72448-3.2083,2.121-4.4239s3.3774-1.8503,5.9429-1.904c1.8794,0.0234,3.4824,0.4107,4.8089,1.162,1.3265,0.75135,2.0195,1.7267,2.079,2.926v1.848h3.696v-2.8c-0.0609-1.7055-0.69829-3.0544-1.9123-4.0465-1.214-0.99205-2.6396-1.6979-4.2767-2.1176-1.6371-0.41961-3.1208-0.62356-4.4509-0.61184-3.6866,0.077-6.6033,1.071-8.7499,2.982s-3.2433,4.277-3.29,7.0979c0.10121,2.9846,1.1133,5.2858,3.0362,6.9037s4.1495,2.9566,6.6797,4.0162,4.7567,2.2444,6.6797,3.5542c1.9229,1.3099,2.935,3.1491,3.0362,5.5177-0.0548,2.1292-0.81318,3.8208-2.275,5.0749-1.4618,1.2542-3.2981,1.8958-5.5089,1.925-2.0827-0.0594-3.8844-0.47565-5.405-1.2486-1.5206-0.77292-2.6959-1.5458-3.5259-2.3188-0.82997-0.77292-1.2503-1.1891-1.261-1.2486z"/>
</g>
</g>
</svg>
