<?xml version="1.0" encoding="UTF-8" standalone="no"?>
<!-- Created with Inkscape (http://www.inkscape.org/) -->
<svg id="svg4680" xmlns:rdf="http://www.w3.org/1999/02/22-rdf-syntax-ns#" xmlns="http://www.w3.org/2000/svg" viewBox="0 0 33.041 40.379" version="1.1" xmlns:cc="http://creativecommons.org/ns#" xmlns:dc="http://purl.org/dc/elements/1.1/">
<metadata id="metadata4685">
<rdf:RDF>
<cc:Work rdf:about="">
<dc:format>image/svg+xml</dc:format>
<dc:type rdf:resource="http://purl.org/dc/dcmitype/StillImage"/>
<dc:title/>
</cc:Work>
</rdf:RDF>
</metadata>
<g id="layer1" transform="translate(-672.05071,-560.74433)">
<g id="g3983" transform="translate(-13.428971,173.54544)">
<path id="path3623" d="m700.04,427.58,3.92,0,0-35.896,9.6879,0c0.4188-0.005,0.72913,0.0887,0.93099,0.28,0.2018,0.19137,0.30213,0.50869,0.301,0.95199v2.632h3.64v-4.1439c0.0175-1.1864-0.21353-2.0194-0.69299-2.499-0.47953-0.47946-1.3125-0.71045-2.499-0.69299h-26.656c-1.1865-0.0175-2.0195,0.21353-2.499,0.69299-0.47949,0.47953-0.71049,1.3125-0.69299,2.499v4.1439h3.584v-2.632c0.002-0.44329,0.10966-0.76062,0.32199-0.95199,0.21233-0.1913,0.51566-0.28463,0.90999-0.28h9.7439z" fill="#000"/>
<path id="path3570" d="m700.04,426.57,3.92,0,0-35.896,9.6879,0c0.4188-0.005,0.72913,0.0887,0.93099,0.28,0.2018,0.19137,0.30213,0.50869,0.301,0.95199v2.632h3.64v-4.1439c0.0175-1.1864-0.21353-2.0194-0.69299-2.499-0.47953-0.47946-1.3125-0.71045-2.499-0.69299h-26.656c-1.1865-0.0175-2.0195,0.21353-2.499,0.69299-0.47949,0.47953-0.71049,1.3125-0.69299,2.499v4.1439h3.584v-2.632c0.002-0.44329,0.10966-0.76062,0.32199-0.95199,0.21233-0.1913,0.51566-0.28463,0.90999-0.28h9.7439z" fill="#FFF"/>
</g>
</g>
</svg>
