<?xml version="1.0" encoding="UTF-8" standalone="no"?>
<!-- Created with Inkscape (http://www.inkscape.org/) -->
<svg id="svg4712" xmlns:rdf="http://www.w3.org/1999/02/22-rdf-syntax-ns#" xmlns="http://www.w3.org/2000/svg" viewBox="0 0 36.344 41.05" version="1.1" xmlns:cc="http://creativecommons.org/ns#" xmlns:dc="http://purl.org/dc/elements/1.1/">
<metadata id="metadata4717">
<rdf:RDF>
<cc:Work rdf:about="">
<dc:format>image/svg+xml</dc:format>
<dc:type rdf:resource="http://purl.org/dc/dcmitype/StillImage"/>
<dc:title/>
</cc:Work>
</rdf:RDF>
</metadata>
<g id="layer1" transform="translate(-356.82824,-511.83728)">
<g id="g3987" transform="translate(-364.38824,124.63765)">
<path id="path3625" d="m724.86,414.08c0.0642,4.3143,1.4058,7.7396,4.025,10.276,2.6191,2.5363,6.1307,3.8336,10.535,3.892,4.4018-0.0583,7.904-1.3556,10.507-3.892,2.6028-2.5363,3.9351-5.9616,3.997-10.276v-21.168c0.002-0.4188,0.10964-0.72913,0.322-0.93099,0.2123-0.2018,0.51563-0.30213,0.90999-0.301h2.408v-3.472h-4.144c-1.1958-0.008-2.0662,0.2602-2.611,0.80499-0.54485,0.54486-0.81318,1.4152-0.80499,2.611v22.176c-0.0409,3.3635-1.0092,5.9884-2.905,7.8749s-4.4741,2.8455-7.7349,2.877c-3.2585-0.0338-5.8274-0.98815-7.7069-2.863s-2.8385-4.4671-2.877-7.7769v-22.288c0.008-1.1958-0.26017-2.0661-0.80499-2.611-0.54484-0.54479-1.4152-0.81312-2.611-0.80499h-4.1439v3.472h2.408c0.39433-0.001,0.69766,0.0992,0.90999,0.301,0.21233,0.20187,0.31966,0.51219,0.322,0.93099z" fill="#000"/>
<path id="path3572" d="m724.86,413.07c0.0642,4.3143,1.4058,7.7396,4.025,10.276,2.6191,2.5363,6.1307,3.8336,10.535,3.892,4.4018-0.0583,7.904-1.3556,10.507-3.892,2.6028-2.5363,3.9351-5.9616,3.997-10.276v-21.168c0.002-0.4188,0.10964-0.72913,0.322-0.93099,0.2123-0.2018,0.51563-0.30213,0.90999-0.301h2.408v-3.472h-4.144c-1.1958-0.008-2.0662,0.2602-2.611,0.80499-0.54485,0.54486-0.81318,1.4152-0.80499,2.611v22.176c-0.0409,3.3635-1.0092,5.9884-2.905,7.8749s-4.4741,2.8455-7.7349,2.877c-3.2585-0.0338-5.8274-0.98815-7.7069-2.863s-2.8385-4.4671-2.877-7.7769v-22.288c0.008-1.1958-0.26017-2.0661-0.80499-2.611-0.54484-0.54479-1.4152-0.81312-2.611-0.80499h-4.1439v3.472h2.408c0.39433-0.001,0.69766,0.0992,0.90999,0.301,0.21233,0.20187,0.31966,0.51219,0.322,0.93099z" fill="#FFF"/>
</g>
</g>
</svg>
