<?xml version="1.0" encoding="UTF-8" standalone="no"?>
<!-- Created with Inkscape (http://www.inkscape.org/) -->
<svg id="svg4746" xmlns:rdf="http://www.w3.org/1999/02/22-rdf-syntax-ns#" xmlns="http://www.w3.org/2000/svg" viewBox="0 0 35.168 40.382" version="1.1" xmlns:cc="http://creativecommons.org/ns#" xmlns:dc="http://purl.org/dc/elements/1.1/">
<metadata id="metadata4751">
<rdf:RDF>
<cc:Work rdf:about="">
<dc:format>image/svg+xml</dc:format>
<dc:type rdf:resource="http://purl.org/dc/dcmitype/StillImage"/>
<dc:title/>
</cc:Work>
</rdf:RDF>
</metadata>
<g id="layer1" transform="translate(-710.98766,-715.02842)">
<g id="g3991" transform="translate(-49.137461,327.83278)">
<path id="path3627" d="m775.64,427.58,4.1999,0,12.936-34.664c0.18896-0.51679,0.44096-0.85512,0.75599-1.015,0.31496-0.1598,0.73495-0.23213,1.26-0.217h0.50399v-3.472h-1.68c-1.3557-0.0361-2.3543,0.1622-2.996,0.59499-0.64169,0.43287-1.1923,1.3172-1.652,2.653l-9.6879,26.488c-0.38151,1.0943-0.72451,2.1956-1.029,3.304-0.30451,1.1083-0.46551,1.7056-0.48299,1.792h-0.112c-0.0175-0.0863-0.17851-0.68365-0.48299-1.792-0.30452-1.1083-0.64751-2.2096-1.029-3.304l-9.6879-26.488c-0.43283-1.3113-0.96716-2.1886-1.603-2.632-0.63583-0.44329-1.6322-0.64862-2.989-0.61599h-1.736v3.472h0.55999c0.52499-0.0151,0.94498,0.0572,1.26,0.217,0.31499,0.15987,0.56699,0.4982,0.75599,1.015z" fill="#000"/>
<path id="path3574" d="m775.64,426.57,4.1999,0,12.936-34.664c0.18896-0.51679,0.44096-0.85512,0.75599-1.015,0.31496-0.1598,0.73495-0.23213,1.26-0.217h0.50399v-3.472h-1.68c-1.3557-0.0361-2.3543,0.1622-2.996,0.59499-0.64169,0.43287-1.1923,1.3172-1.652,2.653l-9.6879,26.488c-0.38151,1.0943-0.72451,2.1956-1.029,3.304-0.30451,1.1083-0.46551,1.7056-0.48299,1.792h-0.112c-0.0175-0.0863-0.17851-0.68365-0.48299-1.792-0.30452-1.1083-0.64751-2.2096-1.029-3.304l-9.6879-26.488c-0.43283-1.3113-0.96716-2.1886-1.603-2.632-0.63583-0.44329-1.6322-0.64862-2.989-0.61599h-1.736v3.472h0.55999c0.52499-0.0151,0.94498,0.0572,1.26,0.217,0.31499,0.15987,0.56699,0.4982,0.75599,1.015z" fill="#FFF"/>
</g>
</g>
</svg>
