<?xml version="1.0" encoding="UTF-8" standalone="no"?>
<!-- Created with Inkscape (http://www.inkscape.org/) -->
<svg id="svg4778" xmlns:rdf="http://www.w3.org/1999/02/22-rdf-syntax-ns#" xmlns="http://www.w3.org/2000/svg" viewBox="0 0 51.015 40.382" version="1.1" xmlns:cc="http://creativecommons.org/ns#" xmlns:dc="http://purl.org/dc/elements/1.1/">
<metadata id="metadata4783">
<rdf:RDF>
<cc:Work rdf:about="">
<dc:format>image/svg+xml</dc:format>
<dc:type rdf:resource="http://purl.org/dc/dcmitype/StillImage"/>
<dc:title/>
</cc:Work>
</rdf:RDF>
</metadata>
<g id="layer1" transform="translate(-349.49233,-512.17127)">
<g id="g3995" transform="translate(-447.44403,124.97564)">
<path id="path3629" d="m808.7,427.58,4.6479,0,8.0639-27.44c0.3768-1.3428,0.70113-2.6191,0.97298-3.829,0.27181-1.2098,0.41414-1.8561,0.427-1.939h0.112c0.0116,0.0852,0.1423,0.74086,0.39199,1.967,0.24964,1.2262,0.5483,2.5118,0.89599,3.857l7.3359,27.384h4.6479l9.0719-34.664c0.13878-0.51679,0.37911-0.85512,0.72099-1.015,0.34178-0.1598,0.79211-0.23213,1.351-0.217h0.616v-3.472h-1.736c-1.3814-0.0361-2.4407,0.1622-3.178,0.59499-0.73737,0.43287-1.2647,1.3172-1.582,2.653l-6.8319,27.16c-0.25787,1.057-0.4702,2.009-0.637,2.856-0.16686,0.84699-0.2532,1.295-0.25899,1.344h-0.112c-0.002-0.049-0.0817-0.49698-0.238-1.344-0.15637-0.84698-0.3757-1.799-0.65799-2.856l-7.8959-30.24h-3.864l-8.6799,30.24c-0.28935,1.057-0.53668,2.009-0.742,2.856-0.20534,0.84699-0.31267,1.295-0.32199,1.344h-0.112c-0.004-0.049-0.0805-0.49698-0.231-1.344-0.15051-0.84698-0.35351-1.799-0.60899-2.856l-6.8319-27.16c-0.31734-1.3358-0.84466-2.2201-1.582-2.653-0.73733-0.43279-1.7966-0.63112-3.178-0.59499h-1.736v3.472h0.67199c0.53433-0.0151,0.97766,0.0572,1.33,0.217,0.35232,0.15987,0.59965,0.4982,0.74199,1.015z" fill="#000"/>
<path id="path3576" d="m808.7,426.57,4.6479,0,8.0639-27.44c0.3768-1.3428,0.70113-2.6191,0.97298-3.829,0.27181-1.2098,0.41414-1.8561,0.427-1.939h0.112c0.0116,0.0852,0.1423,0.74086,0.39199,1.967,0.24964,1.2262,0.5483,2.5118,0.89599,3.857l7.3359,27.384h4.6479l9.0719-34.664c0.13878-0.51679,0.37911-0.85512,0.72099-1.015,0.34178-0.1598,0.79211-0.23213,1.351-0.217h0.616v-3.472h-1.736c-1.3814-0.0361-2.4407,0.1622-3.178,0.59499-0.73737,0.43287-1.2647,1.3172-1.582,2.653l-6.8319,27.16c-0.25787,1.057-0.4702,2.009-0.637,2.856-0.16686,0.84699-0.2532,1.295-0.25899,1.344h-0.112c-0.002-0.049-0.0817-0.49698-0.238-1.344-0.15637-0.84698-0.3757-1.799-0.65799-2.856l-7.8959-30.24h-3.864l-8.6799,30.24c-0.28935,1.057-0.53668,2.009-0.742,2.856-0.20534,0.84699-0.31267,1.295-0.32199,1.344h-0.112c-0.004-0.049-0.0805-0.49698-0.231-1.344-0.15051-0.84698-0.35351-1.799-0.60899-2.856l-6.8319-27.16c-0.31734-1.3358-0.84466-2.2201-1.582-2.653-0.73733-0.43279-1.7966-0.63112-3.178-0.59499h-1.736v3.472h0.67199c0.53433-0.0151,0.97766,0.0572,1.33,0.217,0.35232,0.15987,0.59965,0.4982,0.74199,1.015z" fill="#FFF"/>
</g>
</g>
</svg>
