<?xml version="1.0" encoding="UTF-8" standalone="no"?>
<!-- Created with Inkscape (http://www.inkscape.org/) -->
<svg id="svg4810" xmlns:rdf="http://www.w3.org/1999/02/22-rdf-syntax-ns#" xmlns="http://www.w3.org/2000/svg" viewBox="0 0 30.24 40.381" version="1.1" xmlns:cc="http://creativecommons.org/ns#" xmlns:dc="http://purl.org/dc/elements/1.1/">
<metadata id="metadata4815">
<rdf:RDF>
<cc:Work rdf:about="">
<dc:format>image/svg+xml</dc:format>
<dc:type rdf:resource="http://purl.org/dc/dcmitype/StillImage"/>
<dc:title/>
</cc:Work>
</rdf:RDF>
</metadata>
<g id="layer1" transform="translate(-359.8802,-512.17148)">
<g id="g3999" transform="translate(-489.88166,124.97544)">
<path id="path3631" d="m849.76,427.58,4.48,0,8.1199-13.496c0.63698-1.064,1.183-2.044,1.638-2.94,0.45498-0.89597,0.69298-1.372,0.71399-1.428h0.112c0.028,0.0502,0.29398,0.50985,0.79799,1.379,0.50398,0.86917,1.078,1.8468,1.722,2.933l8.1759,13.552h4.4799l-12.6-20.552,8.5679-13.888c0.38963-0.62412,0.81429-1.0278,1.274-1.211,0.45963-0.18313,0.96829-0.26479,1.526-0.245h1.176v-3.472h-2.072c-1.3288-0.0338-2.3812,0.15987-3.157,0.58099-0.77585,0.4212-1.5342,1.2728-2.275,2.555l-5.0399,8.4559c-0.63935,1.0687-1.1947,2.0673-1.666,2.996-0.47135,0.92868-0.71868,1.4233-0.74199,1.484h-0.112c-0.0315-0.0606-0.30451-0.5553-0.81899-1.484-0.51451-0.92863-1.0815-1.9273-1.701-2.996l-5.0399-8.4559c-0.74083-1.2821-1.4992-2.1338-2.275-2.555-0.77583-0.42112-1.8282-0.61479-3.157-0.58099h-2.072v3.472h1.176c0.55766-0.0198,1.0663,0.0619,1.526,0.245,0.45966,0.1832,0.88432,0.58686,1.274,1.211l8.5119,13.888z" fill="#000"/>
<path id="path3578" d="m849.76,426.57,4.48,0,8.1199-13.496c0.63698-1.064,1.183-2.044,1.638-2.94,0.45498-0.89597,0.69298-1.372,0.71399-1.428h0.112c0.028,0.0502,0.29398,0.50985,0.79799,1.379,0.50398,0.86917,1.078,1.8468,1.722,2.933l8.1759,13.552h4.4799l-12.6-20.552,8.5679-13.888c0.38963-0.62412,0.81429-1.0278,1.274-1.211,0.45963-0.18313,0.96829-0.26479,1.526-0.245h1.176v-3.472h-2.072c-1.3288-0.0338-2.3812,0.15987-3.157,0.58099-0.77585,0.4212-1.5342,1.2728-2.275,2.555l-5.0399,8.4559c-0.63935,1.0687-1.1947,2.0673-1.666,2.996-0.47135,0.92868-0.71868,1.4233-0.74199,1.484h-0.112c-0.0315-0.0606-0.30451-0.5553-0.81899-1.484-0.51451-0.92863-1.0815-1.9273-1.701-2.996l-5.0399-8.4559c-0.74083-1.2821-1.4992-2.1338-2.275-2.555-0.77583-0.42112-1.8282-0.61479-3.157-0.58099h-2.072v3.472h1.176c0.55766-0.0198,1.0663,0.0619,1.526,0.245,0.45966,0.1832,0.88432,0.58686,1.274,1.211l8.5119,13.888z" fill="#FFF"/>
</g>
</g>
</svg>
