<?xml version="1.0" encoding="UTF-8" standalone="no"?>
<!-- Created with Inkscape (http://www.inkscape.org/) -->
<svg id="svg4842" xmlns:rdf="http://www.w3.org/1999/02/22-rdf-syntax-ns#" xmlns="http://www.w3.org/2000/svg" viewBox="0 0 32.032 40.383" version="1.1" xmlns:cc="http://creativecommons.org/ns#" xmlns:dc="http://purl.org/dc/elements/1.1/">
<metadata id="metadata4847">
<rdf:RDF>
<cc:Work rdf:about="">
<dc:format>image/svg+xml</dc:format>
<dc:type rdf:resource="http://purl.org/dc/dcmitype/StillImage"/>
<dc:title/>
</cc:Work>
</rdf:RDF>
</metadata>
<g id="layer1" transform="translate(-358.98421,-512.17053)">
<g id="g4003" transform="translate(-522.43516,124.97638)">
<path id="path3633" d="m895.48,427.58,3.92,0,0-17.136,10.584-17.304c0.3313-0.57512,0.70463-0.96478,1.12-1.169,0.41529-0.20413,0.90062-0.29979,1.456-0.287h0.89599v-3.472h-1.512c-1.295-0.0408-2.317,0.13887-3.066,0.53899-0.74901,0.4002-1.519,1.2659-2.31,2.597l-6.6639,11.144c-0.63934,1.0908-1.1947,2.0872-1.666,2.989-0.47134,0.90185-0.71867,1.3802-0.74199,1.435h-0.112c-0.0233-0.0548-0.27068-0.53314-0.74199-1.435-0.47134-0.9018-1.0267-1.8981-1.666-2.989l-6.6639-11.144c-0.791-1.3311-1.561-2.1968-2.31-2.597-0.749-0.40012-1.771-0.57979-3.066-0.53899h-1.512v3.472h0.89599c0.57865-0.0128,1.0733,0.0829,1.484,0.287,0.41065,0.2042,0.79332,0.59386,1.148,1.169l10.528,17.304z" fill="#000"/>
<path id="path3580" d="m895.48,426.57,3.92,0,0-17.136,10.584-17.304c0.3313-0.57512,0.70463-0.96478,1.12-1.169,0.41529-0.20413,0.90062-0.29979,1.456-0.287h0.89599v-3.472h-1.512c-1.295-0.0408-2.317,0.13887-3.066,0.53899-0.74901,0.4002-1.519,1.2659-2.31,2.597l-6.6639,11.144c-0.63934,1.0908-1.1947,2.0872-1.666,2.989-0.47134,0.90185-0.71867,1.3802-0.74199,1.435h-0.112c-0.0233-0.0548-0.27068-0.53314-0.74199-1.435-0.47134-0.9018-1.0267-1.8981-1.666-2.989l-6.6639-11.144c-0.791-1.3311-1.561-2.1968-2.31-2.597-0.749-0.40012-1.771-0.57979-3.066-0.53899h-1.512v3.472h0.89599c0.57865-0.0128,1.0733,0.0829,1.484,0.287,0.41065,0.2042,0.79332,0.59386,1.148,1.169l10.528,17.304z" fill="#FFF"/>
</g>
</g>
</svg>
