<?xml version="1.0" encoding="UTF-8" standalone="no"?>
<!-- Created with Inkscape (http://www.inkscape.org/) -->
<svg id="svg4874" xmlns:rdf="http://www.w3.org/1999/02/22-rdf-syntax-ns#" xmlns="http://www.w3.org/2000/svg" viewBox="0 0 29.568 40.378" version="1.1" xmlns:cc="http://creativecommons.org/ns#" xmlns:dc="http://purl.org/dc/elements/1.1/">
<metadata id="metadata4879">
<rdf:RDF>
<cc:Work rdf:about="">
<dc:format>image/svg+xml</dc:format>
<dc:type rdf:resource="http://purl.org/dc/dcmitype/StillImage"/>
<dc:title/>
</cc:Work>
</rdf:RDF>
</metadata>
<g id="layer1" transform="translate(-360.2161,-512.1732)">
<g id="g4007" transform="translate(-554.84789,124.97355)">
<path id="path3635" d="m915.06,427.58,26.152,0c1.1958,0.008,2.0661-0.26016,2.611-0.80499,0.5448-0.54482,0.81313-1.4151,0.805-2.611v-3.92h-3.64v2.632c-0.002,0.41883-0.10969,0.72916-0.32199,0.93099-0.21236,0.20183-0.51569,0.30217-0.90999,0.301h-16.968c-0.97883,0.005-1.7092,0.0233-2.191,0.056-0.48183,0.0327-0.72216,0.0513-0.72099,0.056v-0.11199c0.0303-0.0198,0.33366-0.35816,0.90999-1.015,0.57632-0.65682,1.2436-1.5131,2.002-2.569l21.056-29.568v-2.744h-24.808c-1.1958-0.008-2.0662,0.2602-2.611,0.80499-0.54483,0.54486-0.81316,1.4152-0.80499,2.611v3.92h3.64v-2.632c0.002-0.4188,0.10966-0.72913,0.322-0.93099,0.21232-0.2018,0.51565-0.30213,0.90999-0.301h15.68c0.95197-0.005,1.666-0.0233,2.142-0.056,0.47596-0.0326,0.71396-0.0513,0.71399-0.056v0.112c-0.028,0.0199-0.32202,0.3582-0.88199,1.015-0.56002,0.65686-1.218,1.5132-1.974,2.569l-21.112,29.568z" fill="#000"/>
<path id="path3582" d="m915.06,426.57,26.152,0c1.1958,0.008,2.0661-0.26016,2.611-0.80499,0.5448-0.54482,0.81313-1.4151,0.805-2.611v-3.92h-3.64v2.632c-0.002,0.41883-0.10969,0.72916-0.32199,0.93099-0.21236,0.20183-0.51569,0.30217-0.90999,0.301h-16.968c-0.97883,0.005-1.7092,0.0233-2.191,0.056-0.48183,0.0327-0.72216,0.0513-0.72099,0.056v-0.11199c0.0303-0.0198,0.33366-0.35816,0.90999-1.015,0.57632-0.65682,1.2436-1.5131,2.002-2.569l21.056-29.568v-2.744h-24.808c-1.1958-0.008-2.0662,0.2602-2.611,0.80499-0.54483,0.54486-0.81316,1.4152-0.80499,2.611v3.92h3.64v-2.632c0.002-0.4188,0.10966-0.72913,0.322-0.93099,0.21232-0.2018,0.51565-0.30213,0.90999-0.301h15.68c0.95197-0.005,1.666-0.0233,2.142-0.056,0.47596-0.0326,0.71396-0.0513,0.71399-0.056v0.112c-0.028,0.0199-0.32202,0.3582-0.88199,1.015-0.56002,0.65686-1.218,1.5132-1.974,2.569l-21.112,29.568z" fill="#FFF"/>
</g>
</g>
</svg>
